<svg xmlns="http://www.w3.org/2000/svg" xmlns:xlink="http://www.w3.org/1999/xlink" version="1.1" x="0px" y="0px"
  viewBox="0 0 32 40" style="enable-background:new 0 0 32 32;" xml:space="preserve">
  <g opacity="0.038">
    <path
      d="M14.314,31c-2.383,0-4.979-0.469-7.777-1.407c-0.273-0.092-0.493-0.296-0.604-0.562C3.208,22.528,3.38,16.486,6.431,11.559   C10.514,4.964,19.445,0.752,30.935,0.002c0.287-0.014,0.548,0.08,0.749,0.268C31.886,0.459,32,0.724,32,1   c0,9.49-1.586,21.942-9.14,27.376C20.429,30.125,17.57,31,14.314,31z M7.605,27.838c5.78,1.847,10.518,1.482,14.087-1.086   c5.205-3.743,8.138-12.483,8.301-24.673C19.679,2.965,11.745,6.774,8.131,12.612C5.461,16.924,5.285,22.046,7.605,27.838z" />
    <path
      d="M0.999,32c-0.467,0-0.885-0.328-0.979-0.804c-0.108-0.542,0.243-1.068,0.784-1.177c0.101-0.021,10.401-2.286,18.614-16.659   c0.273-0.479,0.884-0.647,1.364-0.372c0.479,0.274,0.646,0.885,0.372,1.364C12.457,29.574,1.652,31.89,1.196,31.98   C1.13,31.994,1.064,32,0.999,32z" />
  </g>
</svg>