<svg xmlns="http://www.w3.org/2000/svg" 
    xmlns:xlink="http://www.w3.org/1999/xlink" width="1308px" height="310px" viewBox="0 0 1308 310" version="1.1">
    <g id="Page-1" stroke="none" stroke-width="1" fill="none" fill-rule="evenodd" opacity="0.571303638">
        <g id="chatbot_splash_jack_1" transform="translate(-66.000000, -75.000000)" fill="#fff">
            <g id="hero" transform="translate(0.000000, -1.000000)">
                <path d="M1210,378.42263 C1210,382.461828 1213.2323,385.691082 1217.27136,385.691082 L1347.90151,385.691082 C1351.94057,385.691082 1355.17287,382.461828 1355.17287,378.42263 C1355.17287,374.383433 1351.94057,371.154179 1347.90151,371.154179 L1329.85465,371.154179 C1329.04789,354.192705 1315.04185,341.000448 1298.07359,341.000448 C1293.22602,341.000448 1288.64678,342.076866 1284.60597,343.961474 C1279.21997,333.730243 1268.44622,327 1256.32554,327 C1238.55052,327 1224.27438,341.538657 1224.27438,359.038339 C1224.27438,363.345765 1225.0829,367.384962 1226.69817,371.154179 L1217.27136,371.154179 C1213.2323,371.154179 1210,374.383433 1210,378.42263 Z M505.925655,111.234106 C505.925655,114.001293 508.140674,116.215427 510.908968,116.215427 L600.412651,116.215427 C603.180944,116.215427 605.395964,114.001293 605.395964,111.234106 C605.395964,108.466919 603.180944,106.252786 600.412651,106.252786 L588.048502,106.252786 C587.495227,94.6309843 577.897451,85.5920188 566.272922,85.5920188 C562.949433,85.5920188 559.812289,86.3294233 557.043995,87.6218014 C553.353577,80.6126185 545.972741,76 537.66786,76 C525.488136,76 515.705935,85.960721 515.705935,97.9512246 C515.705935,100.902763 516.26113,103.66995 517.367679,106.252786 L510.908968,106.252786 C508.140674,106.252786 505.925655,108.466919 505.925655,111.234106 Z M66,111.234106 C66,114.001293 68.2150192,116.215427 70.983313,116.215427 L160.486996,116.215427 C163.25529,116.215427 165.470309,114.001293 165.470309,111.234106 C165.470309,108.466919 163.25529,106.252786 160.486996,106.252786 L148.122847,106.252786 C147.569572,94.6309843 137.971796,85.5920188 126.347268,85.5920188 C123.023778,85.5920188 119.886635,86.3294233 117.118341,87.6218014 C113.427923,80.6126185 106.047087,76 97.7422055,76 C85.5624813,76 75.7802801,85.960721 75.7802801,97.9512246 C75.7802801,100.902763 76.3354757,103.66995 77.4420248,106.252786 L70.983313,106.252786 C68.2150192,106.252786 66,108.466919 66,111.234106 Z M614.914808,116.350972 L628.201082,116.350972 C630.969376,116.350972 633.184395,114.136839 633.184395,111.369652 C633.184395,108.602465 630.969376,106.388331 628.201082,106.388331 L614.914808,106.388331 C612.146515,106.388331 609.931495,108.602465 609.931495,111.369652 C609.931495,114.136839 612.146515,116.350972 614.914808,116.350972 Z M181.249543,116.350972 L194.535816,116.350972 C197.30411,116.350972 199.519129,114.136839 199.519129,111.369652 C199.519129,108.602465 197.30411,106.388331 194.535816,106.388331 L181.249543,106.388331 C178.481249,106.388331 176.26623,108.602465 176.26623,111.369652 C176.26623,114.136839 178.481249,116.350972 181.249543,116.350972 Z M1357.24163,160.160172 C1358.86111,156.384815 1359.66989,152.340613 1359.66989,148.025644 C1359.66989,130.498847 1345.37312,115.938949 1327.57036,115.938949 C1315.43098,115.938949 1304.64021,122.679287 1299.24578,132.926136 C1295.19996,131.038458 1290.61431,129.959235 1285.75779,129.959235 C1268.76381,129.959235 1254.736,143.172985 1253.92722,160.160172 L1235.85358,160.160172 C1231.80776,160.160172 1228.57072,163.395918 1228.57072,167.440121 C1228.57072,171.484323 1231.80776,174.72199 1235.85358,174.72199 L1366.6838,174.72199 C1370.72962,174.72199 1373.96666,171.484323 1373.96666,167.440121 C1373.96666,163.395918 1370.72962,160.160172 1366.6838,160.160172 L1357.24163,160.160172 Z M391.688136,375.741609 C392.762051,373.158762 393.298372,370.391989 393.298372,367.439976 C393.298372,355.449312 383.817855,345.488404 372.012433,345.488404 C363.962529,345.488404 356.806917,350.099692 353.229748,357.109902 C350.546871,355.818478 347.506023,355.080146 344.285552,355.080146 C333.01645,355.080146 323.714282,364.120111 323.177962,375.741609 L311.192917,375.741609 C308.51004,375.741609 306.363484,377.95529 306.363484,380.722063 C306.363484,383.488836 308.51004,385.703831 311.192917,385.703831 L397.949456,385.703831 C400.632333,385.703831 402.778889,383.488836 402.778889,380.722063 C402.778889,377.95529 400.632333,375.741609 397.949456,375.741609 L391.688136,375.741609 Z M1196.44869,174.110897 L1214.97494,174.110897 C1218.83502,174.110897 1221.92362,171.023531 1221.92362,167.164993 C1221.92362,163.306455 1218.83502,160.219089 1214.97494,160.219089 L1196.44869,160.219089 C1192.58861,160.219089 1189.50001,163.306455 1189.50001,167.164993 C1189.50001,171.023531 1192.58861,174.110897 1196.44869,174.110897 Z M285.062625,385.285762 L297.347808,385.285762 C299.907517,385.285762 301.955639,383.173593 301.955639,380.533839 C301.955639,377.894085 299.907517,375.781915 297.347808,375.781915 L285.062625,375.781915 C282.502916,375.781915 280.454793,377.894085 280.454793,380.533839 C280.454793,383.173593 282.502916,385.285762 285.062625,385.285762 Z" id="Combined-Shape"/>
            </g>
        </g>
    </g>
</svg>