<svg xmlns="http://www.w3.org/2000/svg" version="1.1" xmlns:xlink="http://www.w3.org/1999/xlink"
  x="0" y="0" viewBox="0 0 512 512" preserveAspectRatio="xMidYMid meet" style="enable-background:new 0 0 512 512" xml:space="preserve"
  class="">
  <g>
    <path fill="#353744"
      d="M256 125.333a8 8 0 0 1-8-8V112a24.027 24.027 0 0 0-24-24 8 8 0 0 1 0-16 40.045 40.045 0 0 1 40 40v5.333a8 8 0 0 1-8 8z"
      opacity="1" data-original="#353744"></path>
    <path fill="#4b55a5" d="M388 232H228a36 36 0 0 1 0 72h160a36 36 0 0 0 0-72z" opacity="1" data-original="#4b55a5">
    </path>
    <path fill="#d7e6f0" d="M80 240h148a28 28 0 0 1 28 28 28 28 0 0 1-28 28H80z" opacity="1" data-original="#d7e6f0">
    </path>
    <path fill="#6478b9" d="M228 304H64a8 8 0 0 1 0-16h164a20 20 0 0 0 0-40H64a8 8 0 0 1 0-16h164a36 36 0 0 1 0 72z"
      opacity="1" data-original="#6478b9"></path>
    <path fill="#353744"
      d="M333.333 232h1.334a36 36 0 0 1 36 36 36 36 0 0 1-36 36h32a36 36 0 0 0 36-36 36 36 0 0 0-36-36z" opacity="1"
      data-original="#353744"></path>
    <path fill="#a5c3dc" d="M400 368H72a48 48 0 0 0-48 48 48 48 0 0 0 48 48h328z" opacity="1" data-original="#a5c3dc">
    </path>
    <path fill="#d7e6f0" d="M272 368H72a48 48 0 0 0-48 48 48 48 0 0 0 48 48h200z" opacity="1" data-original="#d7e6f0">
    </path>
    <path fill="#4b55a5" d="M416 472H72a56 56 0 0 1 0-112h344a8 8 0 0 1 0 16H72a40 40 0 0 0 0 80h344a8 8 0 0 1 0 16z"
      opacity="1" data-original="#4b55a5"></path>
    <path fill="#6478b9" d="M288 472H72a56 56 0 0 1 0-112h216a8 8 0 0 1 0 16H72a40 40 0 0 0 0 80h216a8 8 0 0 1 0 16z"
      opacity="1" data-original="#6478b9"></path>
    <path fill="#f04b37"
      d="M166.141 472a6.145 6.145 0 0 0 3.406-1.031L192 456l22.453 14.969a6.145 6.145 0 0 0 3.406 1.031 6.14 6.14 0 0 0 6.141-6.141V400h-64v65.859a6.14 6.14 0 0 0 6.141 6.141z"
      opacity="1" data-original="#f04b37" class=""></path>
    <rect width="400" height="56" x="96" y="304" fill="#fabe19" rx="8" opacity="1" data-original="#fabe19"></rect>
    <path fill="#f5871e" d="M128 304h32v56h-32zM432 304h32v56h-32z" opacity="1" data-original="#f5871e"></path>
    <path fill="#d7322d"
      d="M288 104a47.815 47.815 0 0 0-32 12.232A47.993 47.993 0 0 0 176 152c0 45.333 32 80 56 80h48c24 0 56-34.667 56-80a48 48 0 0 0-48-48z"
      opacity="1" data-original="#d7322d"></path>
    <circle cx="216" cy="136" r="16" fill="#f04b37" opacity="1" data-original="#f04b37" class=""></circle>
    <path fill="#6ea5d7" d="M296 40a8 8 0 0 1 8 8 40 40 0 0 1-40 40h-8v-8a40 40 0 0 1 40-40z" opacity="1"
      data-original="#6ea5d7"></path>
  </g>
</svg>