<svg width="320" height="200" 
  xmlns="http://www.w3.org/2000/svg" 
  xmlns:svg="http://www.w3.org/2000/svg">
  <g>
    <path transform="rotate(-0.31538331508636475 102.4965972900332,168.46826171875085) " stroke-width="2" stroke-linejoin="round" id="svg_2" fill-rule="nonzero" fill="#1A936F" d="m-115.37942,156.2998l93.88546,-14.03119l178.81118,-11.5588l163.29504,11.96438l-0.56362,63.55251l-435.6677,-1.65559l0.23965,-48.27131l-0.00001,0z"/>
    <path stroke-width="0" stroke-linejoin="null" stroke-linecap="null" stroke-dasharray="null" stroke="#000000" id="svg_3" fill="#7f7f7f" d="m250.42134,160.20963l0.88475,-13.24864l2.94918,0l0.88475,13.24864l-4.71869,0l0.00001,0z"/>
    <path stroke-width="0" stroke="#000000" id="svg_1" fill="#02C39A" d="m170.09165,133.66833c-5.0053,0.00756 -14.45327,-0.05671 -11.52677,-15.7441c2.9265,-15.68739 10.549,-19.83893 11.8421,-19.8049c1.2931,0.03403 8.57834,2.54461 11.94419,19.49863c3.36585,16.95402 -6.84589,16.24698 -12.05535,16.15245l-0.20417,-0.10208z"/>
    <path stroke-width="0" stroke-linejoin="null" stroke-linecap="null" stroke-dasharray="null" stroke="#000000" id="svg_3" fill="#7f7f7f" d="m168.42134,147.70963l0.88475,-13.24864l2.94918,0l0.88475,13.24864l-4.71869,0l0.00001,0z"/>
    <path stroke-width="0" stroke="#000000" id="svg_1" fill="#02C39A" d="m251.59165,146.66833c-5.0053,0.00756 -14.45327,-0.05671 -11.52677,-15.7441c2.9265,-15.68739 10.549,-19.83893 11.8421,-19.8049c1.2931,0.03403 8.57834,2.54461 11.94419,19.49863c3.36585,16.95402 -6.84589,16.24698 -12.05535,16.15245l-0.20417,-0.10208z"/>
    <path stroke-width="0" stroke-linejoin="null" stroke-linecap="null" stroke-dasharray="null" stroke="#000000" id="svg_3" fill="#7f7f7f" d="m33.92134,157.20963l0.88475,-13.24864l2.94918,0l0.88475,13.24864l-4.71869,0l0.00001,0z"/>
    <path stroke-width="0" stroke="#000000" id="svg_1" fill="#02C39A" d="m35.59165,145.66833c-5.0053,0.00756 -14.45327,-0.05671 -11.52677,-15.7441c2.9265,-15.68739 10.549,-19.83893 11.8421,-19.8049c1.2931,0.03403 8.57834,2.54461 11.94419,19.49863c3.36585,16.95402 -6.84589,16.24698 -12.05535,16.15245l-0.20417,-0.10208z"/>
  </g>
</svg>
